<?xml version="1.0" ?><svg contentScriptType="text/ecmascript" contentStyleType="text/css" enable-background="new 0 0 2048 2048" height="2048px" id="Layer_1" preserveAspectRatio="xMidYMid meet" version="1.1" viewBox="110.0 0 1188.0 2048" width="1188.0px" xml:space="preserve" xmlns="http://www.w3.org/2000/svg" xmlns:xlink="http://www.w3.org/1999/xlink" zoomAndPan="magnify"><path d="M1298,1450c0,26.667-9.333,49.333-28,68l-136,136c-18.667,18.667-41.333,28-68,28s-49.333-9.333-68-28l-294-294l-294,294  c-18.667,18.667-41.333,28-68,28s-49.333-9.333-68-28l-136-136c-18.667-18.667-28-41.333-28-68s9.333-49.333,28-68l294-294L138,794  c-18.667-18.667-28-41.333-28-68s9.333-49.333,28-68l136-136c18.667-18.667,41.333-28,68-28s49.333,9.333,68,28l294,294l294-294  c18.667-18.667,41.333-28,68-28s49.333,9.333,68,28l136,136c18.667,18.667,28,41.333,28,68s-9.333,49.333-28,68l-294,294l294,294  C1288.667,1400.667,1298,1423.333,1298,1450z"/></svg>