<?xml version="1.0" ?><svg contentScriptType="text/ecmascript" contentStyleType="text/css" enable-background="new 0 0 2048 2048" height="2048px" id="Layer_1" preserveAspectRatio="xMidYMid meet" version="1.1" viewBox="0.0 0 1408.0 2048" width="1408.0px" xml:space="preserve" xmlns="http://www.w3.org/2000/svg" xmlns:xlink="http://www.w3.org/1999/xlink" zoomAndPan="magnify"><path d="M1408,864v192c0,26.667-9.333,49.333-28,68s-41.333,28-68,28H896v416c0,26.667-9.333,49.333-28,68s-41.333,28-68,28H608  c-26.667,0-49.333-9.333-68-28s-28-41.333-28-68v-416H96c-26.667,0-49.333-9.333-68-28s-28-41.333-28-68V864  c0-26.667,9.333-49.333,28-68s41.333-28,68-28h416V352c0-26.667,9.333-49.333,28-68s41.333-28,68-28h192  c26.667,0,49.333,9.333,68,28s28,41.333,28,68v416h416c26.667,0,49.333,9.333,68,28S1408,837.333,1408,864z"/></svg>