<?xml version="1.0" encoding="utf-8"?>
<svg xmlns="http://www.w3.org/2000/svg" xmlns:xlink="http://www.w3.org/1999/xlink" version="1.1" style="width:0;height:0;position:absolute;overflow:hidden;">
  <defs>
<symbol viewBox="0 0 768 1024" aria-labelledby="apsi-ant-book-title" id="si-ant-book"><title id="apsi-ant-book-title">icon book</title><path d="M576 354q0 13-9.5 22.5T544 386H224q-13 0-22.5-9.5T192 354t9.5-22.5T224 322h320q13 0 22.5 9.5T576 354zm0 192q0 13-9.5 22.5T544 578H224q-13 0-22.5-9.5T192 546t9.5-22.5T224 514h320q13 0 22.5 9.5T576 546zm0 192q0 13-9.5 22.5T544 770H224q-13 0-22.5-9.5T192 738t9.5-22.5T224 706h320q13 0 22.5 9.5T576 738zM704 64H576V32q0-13-9-22.5T544.5 0t-23 9.5T512 32v32h-95V32q0-13-9.5-22.5t-23-9.5T362 9.5 353 32v32h-96V32q0-13-9.5-22.5T225 0t-22.5 9.5T193 32v32H64q-26 0-45 19T0 128v832q0 26 19 45t45 19h640q26 0 45-19t19-45V128q0-26-19-45t-45-19zm-9 888H73V137h120v23q0 13 9.5 22.5T225 192t22.5-9.5T257 160v-23h96v23q0 13 9 22.5t22.5 9.5 23-9.5T417 160v-23h95v23q0 13 9.5 22.5t23 9.5 22.5-9.5 9-22.5v-23h119v815z"/></symbol>
<symbol viewBox="0 0 1140.97412109375 1200" aria-labelledby="dmsi-elusive-file-new-title" id="si-elusive-file-new"><title id="dmsi-elusive-file-new-title">icon file-new</title><path d="M226.07 0L0 218.249V1200h605.976v-104.329H104.993V292.18h197.59V104.33h442.842v312.986h104.993V0H226.07zm472.725 508.73v249.09H449.631v193.09h249.164V1200H891.81V950.91h249.164V757.82H891.81V508.73H698.795z"/></symbol>
<symbol viewBox="0 0 78.39800262451172 78.39700317382812" aria-labelledby="krsi-foundation-wrench-title" id="si-foundation-wrench"><title id="krsi-foundation-wrench-title">icon wrench</title><path d="M75.456 12.603l-3.866 3.866-3.737 3.737-4.759 4.759a9.08 9.08 0 0 1-9.663-9.663l4.759-4.759 3.737-3.737 3.866-3.866a.645.645 0 0 0 0-.911c-.046-.046-.101-.074-.155-.103l.001-.001-.01-.004a.649.649 0 0 0-.102-.043A21.424 21.424 0 0 0 56.778 0C44.839 0 35.16 9.679 35.16 21.618c0 2.28.358 4.475 1.012 6.538L13.627 50.702C6.082 50.824 0 56.969 0 64.544c0 7.65 6.203 13.853 13.853 13.853 7.574 0 13.72-6.083 13.842-13.628l22.546-22.546a21.602 21.602 0 0 0 6.539 1.012c11.939 0 21.618-9.679 21.618-21.618 0-3.118-.686-6.066-1.877-8.742a.605.605 0 0 0-.05-.118l-.022-.052-.007.007c-.024-.037-.041-.078-.074-.111a.646.646 0 0 0-.912.002zM19.577 64.544a5.724 5.724 0 1 1-11.449 0 5.724 5.724 0 0 1 11.449 0z"/></symbol>
<symbol viewBox="0 0 768 853.33203125" aria-labelledby="flsi-metro-event-available-title" id="si-metro-event-available"><title id="flsi-metro-event-available-title">icon event-available</title><path d="M577.28 429.226l-45.227-45.227L323.84 592.212l-90.453-90.453-45.227 45.227 135.68 135.68 253.44-253.44zM682.667 85.333H640V0h-85.333v85.333H213.334V0h-85.333v85.333H85.334C38.187 85.333.427 123.52.427 170.666L0 767.999c0 47.147 38.187 85.333 85.333 85.333h597.334c47.147 0 85.333-38.187 85.333-85.333V170.666c0-47.147-38.187-85.333-85.333-85.333zm0 682.667H85.334V298.667h597.333V768z"/></symbol>
<symbol viewBox="0 0 1024 1024" aria-labelledby="kbsi-metro-list-title" id="si-metro-list"><title id="kbsi-metro-list-title">icon list</title><path d="M0 0h256v256H0zm384 64h640v128H384zM0 384h256v256H0zm384 64h640v128H384zM0 768h256v256H0zm384 64h640v128H384z"/></symbol>

<symbol viewBox="0 0 768 1024" id="cadastro-evento"><title id="apsi-ant-book-title">icon book</title><path d="M576 354q0 13-9.5 22.5T544 386H224q-13 0-22.5-9.5T192 354t9.5-22.5T224 322h320q13 0 22.5 9.5T576 354zm0 192q0 13-9.5 22.5T544 578H224q-13 0-22.5-9.5T192 546t9.5-22.5T224 514h320q13 0 22.5 9.5T576 546zm0 192q0 13-9.5 22.5T544 770H224q-13 0-22.5-9.5T192 738t9.5-22.5T224 706h320q13 0 22.5 9.5T576 738zM704 64H576V32q0-13-9-22.5T544.5 0t-23 9.5T512 32v32h-95V32q0-13-9.5-22.5t-23-9.5T362 9.5 353 32v32h-96V32q0-13-9.5-22.5T225 0t-22.5 9.5T193 32v32H64q-26 0-45 19T0 128v832q0 26 19 45t45 19h640q26 0 45-19t19-45V128q0-26-19-45t-45-19zm-9 888H73V137h120v23q0 13 9.5 22.5T225 192t22.5-9.5T257 160v-23h96v23q0 13 9 22.5t22.5 9.5 23-9.5T417 160v-23h95v23q0 13 9.5 22.5t23 9.5 22.5-9.5 9-22.5v-23h119v815z"/></symbol>
<symbol viewBox="0 0 1024 1024" aria-labelledby="kbsi-metro-list-title" id="painel-admin"><title id="kbsi-metro-list-title">icon list</title><path d="M0 0h256v256H0zm384 64h640v128H384zM0 384h256v256H0zm384 64h640v128H384zM0 768h256v256H0zm384 64h640v128H384z"/></symbol>

  </defs>
</svg>
